<?xml version="1.0" encoding="utf-8"?>
<!-- Generator: Adobe Illustrator 18.0.0, SVG Export Plug-In . SVG Version: 6.00 Build 0)  -->
<!DOCTYPE svg PUBLIC "-//W3C//DTD SVG 1.1//EN" "http://www.w3.org/Graphics/SVG/1.1/DTD/svg11.dtd">
<svg version="1.1" id="Capa_1" xmlns:sketch="http://www.bohemiancoding.com/sketch/ns"
	 xmlns="http://www.w3.org/2000/svg" xmlns:xlink="http://www.w3.org/1999/xlink" x="0px" y="0px" viewBox="0 0 32 32"
	 enable-background="new 0 0 32 32" xml:space="preserve">
<title>icon 30 book</title>
<desc>Created with Sketch.</desc>
<path d="M25.5,5H26V4H8.5C7.1,4,6,5.1,6,6.5V26c0,1.7,1.3,3,3,3h1V8H8.5C7.7,8,7,7.3,7,6.5C7,5.7,7.7,5,8.5,5h15
	c0,0-0.5,0.7-0.5,1.5S23.5,8,23.5,8H11v21h15V8h-0.5C24.7,8,24,7.3,24,6.5C24,5.7,24.7,5,25.5,5z"/>
</svg>
