<?xml version="1.0" encoding="utf-8"?>
<!-- Generator: Adobe Illustrator 16.0.0, SVG Export Plug-In . SVG Version: 6.00 Build 0)  -->
<!DOCTYPE svg PUBLIC "-//W3C//DTD SVG 1.1//EN" "http://www.w3.org/Graphics/SVG/1.1/DTD/svg11.dtd">
<svg version="1.1" id="Capa_1" xmlns="http://www.w3.org/2000/svg" xmlns:xlink="http://www.w3.org/1999/xlink" x="0px" y="0px"
	 width="23.301px" height="21.787px" viewBox="0 0 23.301 21.787" enable-background="new 0 0 23.301 21.787" xml:space="preserve">
<path d="M1.117,19.237c0.023,0.084,0.6,2.039,2.984,2.387c1.855,0.275,6.182,0.225,7.17-0.309l1.018-0.635l1.363-0.791
	c0.159-0.052,0.84-0.087,2.039-0.027v0.623h7.611V9.178h-7.609v0.131c-1.035-0.516-2.266-1.354-2.957-2.416
	c-0.939-1.445-1.588-3.242-2.061-4.554c-0.57-1.583-0.807-2.236-1.494-2.315C7.445-0.167,6.223,0.785,5.92,2.575
	C5.84,3.021,5.807,3.459,5.807,3.881c0,1.54,0.434,2.818,0.824,3.699c-1.043,0-2.307,0-2.307,0c-1.924,0-3.256,0.869-3.961,2.581
	C-0.713,12.772,0.929,18.589,1.117,19.237z M1.746,10.73c0.473-1.146,1.267-1.657,2.578-1.657L9.23,9.071L8.472,7.914
	C8.455,7.892,7.304,6.108,7.304,3.867c0-0.339,0.024-0.69,0.086-1.044c0.156-0.903,0.574-1.32,1.332-1.324
	c0.106,0.253,0.545,1.346,0.545,1.346c0.498,1.383,1.181,3.274,2.216,4.864c1.083,1.657,2.982,2.722,4.208,3.218v7.448
	c-1.215-0.054-2.115-0.039-2.512,0.094l-1.711,0.962c0,0-0.907,0.568-0.902,0.565c-0.55,0.262-4.252,0.442-6.248,0.146
	c-1.404-0.201-1.75-1.272-1.765-1.315C2.082,17.188,1.002,12.535,1.746,10.73z"/>
</svg>
