<?xml version="1.0" encoding="iso-8859-1"?>
<!-- Generator: Adobe Illustrator 16.0.0, SVG Export Plug-In . SVG Version: 6.00 Build 0)  -->
<!DOCTYPE svg PUBLIC "-//W3C//DTD SVG 1.1//EN" "http://www.w3.org/Graphics/SVG/1.1/DTD/svg11.dtd">
<svg version="1.1" id="Layer_1" xmlns="http://www.w3.org/2000/svg" xmlns:xlink="http://www.w3.org/1999/xlink" x="0px" y="0px"
	 width="23px" height="22px" viewBox="0 0 23 22" style="enable-background:new 0 0 23 22;" xml:space="preserve">
<g id="user_9_">
	<path id="user_10_" d="M22,17.208c-0.644-0.366-4.843-2.851-7-3.724V9.707c0.624-0.456,1-1.158,1-2.223V4.5C16,2.025,14.5,0,11.5,0
		S7,2.025,7,4.5c0,0,0,0.484,0,2.984C7,8.56,7.376,9.264,8,9.718v3.767c-2.032,0.873-6.356,3.357-7,3.724
		c-0.801,0.455-1,0.888-1,1.94c0,0.43,0,2.352,0,2.352C0,21.775,0.225,22,0.5,22h22c0.275,0,0.5-0.225,0.5-0.5c0,0,0-1.922,0-2.352
		C23,18.096,22.801,17.663,22,17.208z"/>
</g>
<g>
</g>
<g>
</g>
<g>
</g>
<g>
</g>
<g>
</g>
<g>
</g>
<g>
</g>
<g>
</g>
<g>
</g>
<g>
</g>
<g>
</g>
<g>
</g>
<g>
</g>
<g>
</g>
<g>
</g>
</svg>
