<?xml version="1.0" encoding="iso-8859-1"?>
<!-- Generator: Adobe Illustrator 16.0.0, SVG Export Plug-In . SVG Version: 6.00 Build 0)  -->
<!DOCTYPE svg PUBLIC "-//W3C//DTD SVG 1.1//EN" "http://www.w3.org/Graphics/SVG/1.1/DTD/svg11.dtd">
<svg version="1.1" id="Layer_1" xmlns="http://www.w3.org/2000/svg" xmlns:xlink="http://www.w3.org/1999/xlink" x="0px" y="0px"
	 width="22px" height="24px" viewBox="0 0 22 24" style="enable-background:new 0 0 22 24;" xml:space="preserve">
<g id="address_x5F_book_1_">
	<path d="M18,0H3.5L0,3.75V24h15c1.65,0,3-1.35,3-3V7c0-1.65-1.35-3-3-3H2.734l2-2C4.734,2,16,2,17,2c2,0,3,1,3,3c0,1,0,16,0,16l2-2
		V4C22,2,20,0,18,0z M4,16.756c0-0.459,0.086-0.646,0.436-0.846c0.28-0.16,2.677-0.938,3.564-1.316v-0.906
		c-0.469-0.125-1-0.859-1-1.328c0-1.09,0-1.99,0-1.99c0-1.076,0.702-1.955,2-1.963c1.298,0.008,2,0.887,2,1.963c0,0,0,0.9,0,1.99
		c0,0.469-0.531,1.203-1,1.328v0.906c0.888,0.379,3.284,1.156,3.564,1.316C13.914,16.109,14,16.297,14,16.756
		c0,0.188,0,1.025,0,1.025C14,17.9,13.901,18,13.782,18H9H4.218C4.099,18,4,17.9,4,17.781C4,17.781,4,16.943,4,16.756z"/>
</g>
<g>
</g>
<g>
</g>
<g>
</g>
<g>
</g>
<g>
</g>
<g>
</g>
<g>
</g>
<g>
</g>
<g>
</g>
<g>
</g>
<g>
</g>
<g>
</g>
<g>
</g>
<g>
</g>
<g>
</g>
</svg>
