<?xml version="1.0" encoding="utf-8"?>
<!-- Generator: Adobe Illustrator 18.0.0, SVG Export Plug-In . SVG Version: 6.00 Build 0)  -->
<!DOCTYPE svg PUBLIC "-//W3C//DTD SVG 1.1//EN" "http://www.w3.org/Graphics/SVG/1.1/DTD/svg11.dtd">
<svg version="1.1" id="Capa_1" xmlns:sketch="http://www.bohemiancoding.com/sketch/ns"
	 xmlns="http://www.w3.org/2000/svg" xmlns:xlink="http://www.w3.org/1999/xlink" x="0px" y="0px" viewBox="0 0 32 32"
	 enable-background="new 0 0 32 32" xml:space="preserve">
<title>icon 114 lock</title>
<desc>Created with Sketch.</desc>
<path d="M24,14v-3.5C24,6.4,20.6,3,16.5,3C12.4,3,9,6.4,9,10.5V14c-1.7,0-3,1.3-3,3v10c0,1.7,1.3,3,3,3h15c1.7,0,3-1.3,3-3V17
	C27,15.4,25.7,14,24,14z M17,21.9v2.6c0,0.3-0.2,0.5-0.5,0.5c-0.3,0-0.5-0.2-0.5-0.5v-2.6c-0.6-0.2-1-0.8-1-1.4
	c0-0.8,0.7-1.5,1.5-1.5s1.5,0.7,1.5,1.5C18,21.2,17.6,21.7,17,21.9z M21,14h-9v-3.5C12,8,14,6,16.5,6C19,6,21,8,21,10.5V14z"/>
</svg>
