<?xml version="1.0" encoding="iso-8859-1"?>
<!-- Generator: Adobe Illustrator 16.2.1, SVG Export Plug-In . SVG Version: 6.00 Build 0)  -->
<!DOCTYPE svg PUBLIC "-//W3C//DTD SVG 1.1//EN" "http://www.w3.org/Graphics/SVG/1.1/DTD/svg11.dtd">
<svg version="1.1" id="Layer_1" xmlns="http://www.w3.org/2000/svg" xmlns:xlink="http://www.w3.org/1999/xlink" x="0px" y="0px"
	 width="164.641px" height="142.584px" viewBox="0 0 164.641 142.584" style="enable-background:new 0 0 164.641 142.584;"
	 xml:space="preserve">
<g>
	<path d="M120.483,0c1.65,0,3.674,1.169,4.5,2.598l38.158,66.095c0.826,1.429,0.826,3.767,0,5.197l-38.16,66.096
		c-0.824,1.43-2.85,2.598-4.5,2.598H44.162c-1.65,0-3.675-1.168-4.5-2.598L1.5,73.891c-0.825-1.43-0.825-3.767,0-5.196L39.662,2.598
		C40.487,1.169,42.512,0,44.162,0L120.483,0z"/>
</g>
<g>
	<path style="fill-rule:evenodd;clip-rule:evenodd;fill:#FFFFFF;" d="M52.596,35.221c-1.252,0.115-2.104,0.194-2.958,0.272
		c-0.112-0.247-0.224-0.494-0.337-0.74c1.215-0.814,2.335-1.885,3.668-2.372c1.399-0.512,2.364,0.458,2.616,1.894
		c0.127,0.725,0.144,1.504,0.033,2.231c-0.998,6.592-2.206,13.158-3.011,19.774c-0.954,7.869-1.939,15.759-1.412,23.725
		c0.016,0.223,0.188,0.434,0.352,0.787c0.429-0.201,0.806-0.343,1.151-0.543c1.287-0.746,2.518-1.605,3.852-2.251
		c2.882-1.396,4.414-0.88,6.055,1.818c0.804,1.325,1.584,2.679,2.536,3.894c1.345,1.712,3.072,2.295,5.29,1.674
		c3.207-0.895,6.473-1.58,9.779-2.371c-0.304-3.772,0.57-7.422,3.248-10.467c0.932-1.058,2.064-1.956,3.189-2.819
		c1.174-0.902,2.566-1.288,3.691-0.059c1.023,1.119,1.447,2.532,0.812,4.097c-0.943,2.344-2.727,3.941-4.629,5.475
		c-0.713,0.572-1.914,1.678-1.764,1.98c0.602,1.219,1.445,2.562,2.574,3.214c1.668,0.963,3.623,0.692,5.338-0.296
		c1.451-0.836,2.83-1.792,4.268-2.652c0.541-0.323,1.152-0.525,1.73-0.783c0.158,0.147,0.314,0.295,0.473,0.443
		c-0.35,0.604-0.566,1.374-1.074,1.785c-1.922,1.551-3.912,3.019-5.918,4.453c-2.432,1.737-5.662,1.836-7.867-0.204
		c-2.102-1.942-4.122-1.902-6.477-0.894c-2.108,0.902-4.261,1.701-6.372,2.596c-5.128,2.166-8.915,0.707-11.359-4.279
		c-0.562-1.146-1.345-2.78-2.308-3.01c-1.94-0.462-3.691,0.695-5.016,2.249c-0.161,0.189-0.291,0.402-0.439,0.603
		c-0.734,0.994-1.413,2.325-2.896,1.849c-1.563-0.501-2.333-1.895-2.312-3.498c0.063-5.208-0.009-10.435,0.421-15.616
		c0.456-5.491,1.299-10.96,2.215-16.398c0.719-4.26,1.828-8.453,2.705-12.689C52.625,37.212,52.547,36.279,52.596,35.221z
		 M88.967,72.021c-2.729,0.271-4.15,2.005-4.143,4.9C86.852,75.797,88.475,74.503,88.967,72.021z"/>
	<path style="fill-rule:evenodd;clip-rule:evenodd;fill:#FFFFFF;" d="M89.766,110.208c-0.199-2.896-0.307-5.864,1.172-8.479
		c2.127-3.76,4.547-7.353,6.84-11.019c1.543-2.469,3.16-4.897,4.561-7.445c0.27-0.491-0.275-1.458-0.496-2.19
		c-0.582-1.926-1.414-3.814-1.672-5.78c-0.092-0.708,1.02-2.012,1.846-2.305c1.447-0.516,2.004,1.008,2.441,2.005
		c1.91,4.367,1.775,4.306,4.973,0.769c1.387-1.533,3.195-2.702,4.896-3.918c0.373-0.265,1.105-0.026,1.672-0.019
		c-0.215,0.585-0.273,1.516-0.674,1.7c-2.482,1.138-3.713,3.524-5.523,5.313c-1.953,1.93-1.729,4.779,0.482,6.003
		c0.703,0.39,1.742,0.304,2.611,0.233c1.162-0.092,2.303-0.445,3.465-0.547c0.393-0.035,1.133,0.31,1.168,0.559
		c0.066,0.466-0.121,1.143-0.459,1.459c-2.328,2.199-7.492,2.939-10.215,1.277c-1.67-1.02-2.707-0.582-3.859,0.674
		c-5.549,6.055-9.932,12.777-12.109,20.793c-0.102,0.375-0.389,0.702-0.59,1.051C90.12,110.297,89.942,110.252,89.766,110.208z"/>
</g>
</svg>
